HIERARCHY
ROOT joint_Root
{
	OFFSET 0.0 0.0 0.0
	CHANNELS 6 Xposition Yposition Zposition Zrotation Xrotation Yrotation 
	JOINT Hips
	{
		OFFSET -17.1583 93.1646 452.98
		CHANNELS 6 Xposition Yposition Zposition Zrotation Xrotation Yrotation 
		JOINT Spine
		{
			OFFSET 15.7357 0.0 0.0
			CHANNELS 6 Xposition Yposition Zposition Zrotation Xrotation Yrotation 
			JOINT Chest
			{
				OFFSET 8.98455 -0.406207 0.0
				CHANNELS 6 Xposition Yposition Zposition Zrotation Xrotation Yrotation 
				JOINT Neck
				{
					OFFSET 16.3773 0.0 0.0
					CHANNELS 6 Xposition Yposition Zposition Zrotation Xrotation Yrotation 
					JOINT Head
					{
						OFFSET 6.45672 0.0 0.0
						CHANNELS 6 Xposition Yposition Zposition Zrotation Xrotation Yrotation 
						End Site
						{
							OFFSET 0.0 0.0 0.0
						}
					}
				}
				JOINT Shoulder_L
				{
					OFFSET 12.9942 -0.242716 4.98039
					CHANNELS 6 Xposition Yposition Zposition Zrotation Xrotation Yrotation 
					JOINT UpperArm_L
					{
						OFFSET 5.34809 0.0 0.0
						CHANNELS 6 Xposition Yposition Zposition Zrotation Xrotation Yrotation 
						JOINT LowerArm_L
						{
							OFFSET 24.3286 1.87007e-05 0.0
							CHANNELS 6 Xposition Yposition Zposition Zrotation Xrotation Yrotation 
							JOINT Hand_L
							{
								OFFSET 22.2916 0.0 0.0
								CHANNELS 6 Xposition Yposition Zposition Zrotation Xrotation Yrotation 
								End Site
								{
									OFFSET 0.0 0.0 0.0
								}
							}
						}
					}
				}
				JOINT Shoulder_R
				{
					OFFSET 12.9945 -0.242716 -4.98039
					CHANNELS 6 Xposition Yposition Zposition Zrotation Xrotation Yrotation 
					JOINT UpperArm_R
					{
						OFFSET -5.34813 0.0 0.0
						CHANNELS 6 Xposition Yposition Zposition Zrotation Xrotation Yrotation 
						JOINT LowerArm_R
						{
							OFFSET -24.3289 0.000322201 0.0
							CHANNELS 6 Xposition Yposition Zposition Zrotation Xrotation Yrotation 
							JOINT Hand_R
							{
								OFFSET -22.2915 -0.000108084 0.0
								CHANNELS 6 Xposition Yposition Zposition Zrotation Xrotation Yrotation 
								End Site
								{
									OFFSET 0.0 0.0 0.0
								}
							}
						}
					}
				}
			}
		}
		JOINT UpperLeg_L
		{
			OFFSET -2.19248 -6.46944 0.0
			CHANNELS 6 Xposition Yposition Zposition Zrotation Xrotation Yrotation 
			JOINT LowerLeg_L
			{
				OFFSET 39.0811 0.0 -1.23785e-05
				CHANNELS 6 Xposition Yposition Zposition Zrotation Xrotation Yrotation 
				JOINT Foot_L
				{
					OFFSET 40.9854 0.0 -1.26872e-05
					CHANNELS 6 Xposition Yposition Zposition Zrotation Xrotation Yrotation 
					JOINT Toes_L
					{
						OFFSET 11.7543 0.0 0.0
						CHANNELS 6 Xposition Yposition Zposition Zrotation Xrotation Yrotation 
						End Site
						{
							OFFSET 0.0 0.0 0.0
						}
					}
				}
			}
		}
		JOINT UpperLeg_R
		{
			OFFSET -2.19251 6.46944 0.0
			CHANNELS 6 Xposition Yposition Zposition Zrotation Xrotation Yrotation 
			JOINT LowerLeg_R
			{
				OFFSET -39.0811 -0.00228153 -0.0401928
				CHANNELS 6 Xposition Yposition Zposition Zrotation Xrotation Yrotation 
				JOINT Foot_R
				{
					OFFSET -40.9854 0.0 0.0
					CHANNELS 6 Xposition Yposition Zposition Zrotation Xrotation Yrotation 
					JOINT Toes_R
					{
						OFFSET -11.7543 0.0 0.0
						CHANNELS 6 Xposition Yposition Zposition Zrotation Xrotation Yrotation 
						End Site
						{
							OFFSET 0.0 0.0 0.0
						}
					}
				}
			}
		}
	}
}
MOTION
Frames:	4
Frame Time:	0.0333333
0.000000 0.000000 0.000000 0.000000 0.000000 -0.000000 -1.152300 92.491500 0.091707 85.868600 1.298080 0.680881 15.735700 0.000005 -0.000001 83.218400 87.594700 -80.738000 8.984550 -0.406207 -0.000000 -2.967080 -0.800002 4.940790 16.377300 -0.000001 -0.000001 3.651170 3.520040 -1.031320 6.456720 -0.000001 -0.000000 3.547580 4.573130 -5.694350 12.994200 -0.242716 4.980390 -92.805700 8.616410 -71.886400 5.348090 -0.000007 -0.000001 -74.495600 14.479200 4.734280 24.328600 0.000019 0.000005 12.819400 25.404000 -27.942700 22.291600 -0.000001 0.000005 -1.312370 5.024070 6.803500 12.994500 -0.242716 -4.980390 88.597200 4.552570 -72.853600 -5.348130 -0.000001 -0.000004 -71.937400 17.496400 0.265575 -24.328900 0.000322 -0.000009 0.018609 0.056575 -19.173800 -22.291500 -0.000108 -0.000004 3.698270 5.243700 1.598250 -2.192480 -6.469440 -0.000000 -175.177000 -0.672235 -4.929190 39.081100 -0.000007 -0.000012 0.296214 -0.673653 23.736400 40.985400 -0.000006 -0.000013 2.422550 8.028570 -74.066800 11.754300 -0.000000 0.000003 0.000252 0.163271 -9.954860 -2.192510 6.469440 -0.000001 -173.591000 6.754340 -178.281000 -39.081100 -0.002282 -0.040193 0.058087 -0.234278 13.154600 -40.985400 0.000008 0.000006 1.337280 1.624570 -70.096000 -11.754300 -0.000006 -0.000006 -0.011073 0.279154 -5.229830
0.000000 0.000000 0.000000 0.000000 0.000000 -0.000000 -1.145390 92.514100 0.056126 85.931500 1.310200 0.585668 15.735700 0.000005 -0.000001 83.136100 87.603200 -80.685400 8.984550 -0.406207 -0.000000 -2.984950 -0.802432 4.881060 16.377300 -0.000001 -0.000001 3.412370 3.410320 -0.914403 6.456720 -0.000001 -0.000000 3.305360 4.456040 -5.363440 12.994200 -0.242716 4.980390 -92.853800 8.713510 -71.786100 5.348090 -0.000007 -0.000001 -73.196400 13.693600 3.941030 24.328600 0.000019 0.000005 13.377200 27.002400 -27.645100 22.291600 -0.000001 0.000005 -1.689450 5.035310 6.559000 12.994500 -0.242716 -4.980390 88.599800 4.528290 -72.798300 -5.348130 -0.000001 -0.000004 -70.954200 16.593800 -0.135109 -24.328900 0.000322 -0.000009 0.485439 1.395770 -19.216500 -22.291500 -0.000108 -0.000004 2.828620 5.252250 1.372320 -2.192480 -6.469440 -0.000000 -175.231000 -0.756648 -4.985430 39.081100 -0.000007 -0.000012 0.290639 -0.666124 23.572900 40.985400 -0.000006 -0.000013 2.433720 8.133400 -73.925100 11.754300 -0.000000 0.000003 0.000267 0.163005 -9.965640 -2.192510 6.469440 -0.000001 -173.648000 6.647850 -178.394000 -39.081100 -0.002282 -0.040193 0.056690 -0.228697 13.132700 -40.985400 0.000008 0.000006 1.140450 1.595250 -70.052500 -11.754300 -0.000006 -0.000006 -0.011333 0.281011 -5.153810
0.000000 0.000000 0.000000 0.000000 0.000000 -0.000000 -1.153970 92.538200 -0.007707 85.941500 1.381830 0.442157 15.735700 0.000005 -0.000001 83.058700 87.628400 -80.625000 8.984550 -0.406207 -0.000000 -3.035970 -0.802251 4.846800 16.377300 -0.000001 -0.000001 3.183820 3.289870 -0.737203 6.456720 -0.000001 -0.000000 2.995200 4.353720 -4.975470 12.994200 -0.242716 4.980390 -92.868000 8.736730 -71.746400 5.348090 -0.000007 -0.000001 -71.664700 11.741000 2.895580 24.328600 0.000019 0.000005 13.269700 27.727300 -26.879100 22.291600 -0.000001 0.000005 -1.880420 5.020260 6.885850 12.994500 -0.242716 -4.980390 88.613700 4.483480 -72.799200 -5.348130 -0.000001 -0.000004 -69.652900 15.200400 -0.484643 -24.328900 0.000322 -0.000009 0.982751 2.766410 -19.584100 -22.291500 -0.000108 -0.000004 1.823190 5.256020 1.273140 -2.192480 -6.469440 -0.000000 -175.225000 -0.849822 -5.118050 39.081100 -0.000007 -0.000012 0.288572 -0.665300 23.449300 40.985400 -0.000006 -0.000013 2.449770 8.282720 -73.829700 11.754300 -0.000000 0.000003 0.000320 0.162045 -10.004600 -2.192510 6.469440 -0.000001 -173.641000 6.629010 -178.532000 -39.081100 -0.002282 -0.040193 0.052873 -0.214517 13.003500 -40.985400 0.000008 0.000006 1.019590 1.545920 -69.882700 -11.754300 -0.000006 -0.000006 -0.010937 0.278180 -5.269720
0.000000 0.000000 0.000000 0.000000 0.000000 -0.000000 -1.173260 92.549500 -0.060958 85.963400 1.517560 0.463368 15.735700 0.000005 -0.000001 82.814300 87.591700 -80.366600 8.984550 -0.406207 -0.000000 -2.964930 -0.831307 4.874600 16.377300 -0.000001 -0.000001 2.951390 3.128380 -0.510174 6.456720 -0.000001 -0.000000 2.607870 4.267090 -4.738820 12.994200 -0.242716 4.980390 -92.910200 8.872870 -71.758700 5.348090 -0.000007 -0.000001 -69.758000 8.905000 1.808330 24.328600 0.000019 0.000005 12.642600 27.147300 -26.178600 22.291600 -0.000001 0.000005 -2.398020 4.982700 7.686990 12.994500 -0.242716 -4.980390 88.661400 4.324370 -72.781600 -5.348130 -0.000001 -0.000004 -67.984900 13.392600 -0.953003 -24.328900 0.000322 -0.000009 1.427210 3.876480 -20.242400 -22.291500 -0.000108 -0.000004 0.808362 5.249660 1.443100 -2.192480 -6.469440 -0.000000 -175.215000 -0.841725 -5.153120 39.081100 -0.000007 -0.000012 0.286424 -0.661037 23.427500 40.985400 -0.000006 -0.000013 2.447080 8.404780 -73.815500 11.754300 -0.000000 0.000003 0.000164 0.164814 -9.892200 -2.192510 6.469440 -0.000001 -173.633000 6.629460 -178.536000 -39.081100 -0.002282 -0.040193 0.051826 -0.210581 12.968000 -40.985400 0.000008 0.000006 0.959925 1.388100 -69.839300 -11.754300 -0.000006 -0.000006 -0.010879 0.277763 -5.286770
